<svg xmlns="http://www.w3.org/2000/svg" xmlns:xlink="http://www.w3.org/1999/xlink" version="1.1" id="Layer_1" x="0px" y="0px" style="enable-background:new 0 0 841.89 595.28;" xml:space="preserve" viewBox="230.93 225.55 380.66 144.33">
<style type="text/css">
	.st0{fill:#E0DDCF;}
	.st1{fill:#FFFFFF;}
	.st2{fill:#224352;}
</style>
<g>
	<path d="M435.79,277.78c10.14,0,18.83,6.24,22.43,15.09l20.68,0.04c-2.92-21.58-19.64-35.38-42.03-35.38   c-27.08,0-46.4,17.53-46.4,44.46c0,26.93,18.49,44.46,45.76,44.46c21.73,0,38.94-12.99,42.34-34.09l-20.91-0.04   c-3.88,8.17-12.22,13.8-21.85,13.8c-13.35,0-24.18-10.82-24.18-24.18C411.61,288.59,422.45,277.78,435.79,277.78z"/>
	<path d="M278.95,257.51c-9.57,0-17.68,2.28-24.16,6.82v-38.78h-23.86V344.8h20.77l1.3-5.99c6.33,5.03,14.76,7.63,24.99,7.63   c26.44,0,43-18.34,43-44.29C320.98,274.55,302.96,257.51,278.95,257.51z M275.95,326.15c-13.35,0-24.18-10.82-24.18-24.18   c0-13.35,10.83-24.16,24.18-24.16c13.35,0,24.18,10.82,24.18,24.16C300.13,315.34,289.3,326.15,275.95,326.15z"/>
	<path d="M539.95,257.64c-8.77,0-17.85,2.6-24.99,9.89v-41.85H491.1v119.25h23.86c0,0,0-38.86,0-51.82   c0-8.61,6.97-15.57,15.57-15.57c8.61,0,15.57,6.97,15.57,15.57v51.82h23.84v-53.86C569.95,259.43,546.75,257.64,539.95,257.64z"/>
	<path d="M356.23,270.67h-0.49l-0.48-11.52h-22.07v85.67h23.53v-40.89c0-18.01,9.73-20.12,18.66-20.12h6.98v-24.66h-5.03   C369.53,259.15,361.75,262.72,356.23,270.67z"/>
	<polygon points="585.14,344.89 592.28,344.89 581.73,369.88 599.26,369.88 611.59,344.89 611.59,319.1 585.14,319.1  "/>
	<path d="M598.36,306.59c7.3,0,13.22-5.92,13.22-13.22c0-7.3-5.92-13.22-13.22-13.22c-7.3,0-13.22,5.92-13.22,13.22   C585.14,300.67,591.06,306.59,598.36,306.59z"/>
</g>
</svg>